<svg width="24" height="24" viewBox="0 0 24 24" fill="none" xmlns="http://www.w3.org/2000/svg">
<g clip-path="url(#clip0_2754_20293)">
<path d="M23.6231 14.9224C22.0205 21.351 15.5093 25.2634 9.0799 23.6603C2.65319 22.0576 -1.25914 15.546 0.344246 9.1179C1.94623 2.68856 8.45739 -1.22407 14.8848 0.378612C21.3137 1.9813 25.2258 8.49358 23.623 14.9225L23.6231 14.9224H23.6231Z" fill="#F7931A"/>
<path d="M17.2915 10.2933C17.5304 8.69633 16.3146 7.83791 14.6521 7.26526L15.1914 5.10207L13.8746 4.77396L13.3496 6.88019C13.0034 6.79385 12.6479 6.7125 12.2945 6.63185L12.8234 4.51171L11.5074 4.18359L10.9678 6.34608C10.6813 6.28086 10.3999 6.2164 10.1269 6.14847L10.1285 6.14167L8.31258 5.68821L7.96229 7.09464C7.96229 7.09464 8.93925 7.31858 8.91866 7.33236C9.45189 7.46545 9.54832 7.81844 9.53231 8.09822L8.91795 10.5626C8.95467 10.5719 9.0023 10.5854 9.05486 10.6065C9.01092 10.5956 8.96417 10.5837 8.91567 10.5721L8.05455 14.0244C7.98939 14.1864 7.82398 14.4295 7.45117 14.3372C7.46437 14.3563 6.4941 14.0983 6.4941 14.0983L5.84033 15.6056L7.55393 16.0328C7.87272 16.1128 8.18512 16.1964 8.49277 16.2751L7.94786 18.4631L9.26314 18.7912L9.80276 16.6264C10.1621 16.724 10.5108 16.8139 10.8522 16.8987L10.3144 19.0533L11.6312 19.3814L12.1761 17.1975C14.4215 17.6225 16.1099 17.4512 16.8205 15.4202C17.3932 13.785 16.792 12.8418 15.6107 12.2268C16.4711 12.0283 17.1192 11.4624 17.292 10.2934L17.2916 10.2931L17.2915 10.2933ZM14.2829 14.5121C13.876 16.1473 11.1229 15.2633 10.2302 15.0417L10.9533 12.1429C11.8459 12.3658 14.7082 12.8067 14.283 14.5121H14.2829ZM14.6902 10.2696C14.319 11.7569 12.0275 11.0013 11.2842 10.816L11.9397 8.18703C12.6831 8.37232 15.0769 8.71814 14.6903 10.2696H14.6902Z" fill="white"/>
</g>
<defs>
<clipPath id="clip0_2754_20293">
<rect width="24" height="24" fill="white"/>
</clipPath>
</defs>
</svg>
