<svg width="24" height="24" viewBox="0 0 24 24" fill="none" xmlns="http://www.w3.org/2000/svg">
<path fillRule="evenodd" clipRule="evenodd" d="M8.70757 7.29243C8.51897 7.11027 8.26637 7.00948 8.00417 7.01176C7.74197 7.01403 7.49116 7.1192 7.30575 7.30461C7.12034 7.49002 7.01517 7.74083 7.0129 8.00303C7.01062 8.26523 7.11141 8.51783 7.29357 8.70643L10.5866 11.9994L7.29357 15.2924C7.19806 15.3847 7.12188 15.495 7.06947 15.617C7.01706 15.739 6.98947 15.8703 6.98832 16.003C6.98717 16.1358 7.01247 16.2675 7.06275 16.3904C7.11303 16.5133 7.18728 16.6249 7.28117 16.7188C7.37507 16.8127 7.48672 16.887 7.60962 16.9373C7.73251 16.9875 7.86419 17.0128 7.99697 17.0117C8.12975 17.0105 8.26097 16.9829 8.38297 16.9305C8.50498 16.8781 8.61532 16.8019 8.70757 16.7064L12.0006 13.4134L15.2936 16.7064C15.4822 16.8886 15.7348 16.9894 15.997 16.9871C16.2592 16.9848 16.51 16.8797 16.6954 16.6942C16.8808 16.5088 16.986 16.258 16.9882 15.9958C16.9905 15.7336 16.8897 15.481 16.7076 15.2924L13.4146 11.9994L16.7076 8.70643C16.8897 8.51783 16.9905 8.26523 16.9882 8.00303C16.986 7.74083 16.8808 7.49002 16.6954 7.30461C16.51 7.1192 16.2592 7.01403 15.997 7.01176C15.7348 7.00948 15.4822 7.11027 15.2936 7.29243L12.0006 10.5854L8.70757 7.29243Z" fill="black"/>
</svg>
