<svg width="24" height="28" viewBox="0 0 24 28" fill="none" xmlns="http://www.w3.org/2000/svg">
<path fillRule="evenodd" clipRule="evenodd" d="M1 14C1 7.92472 5.92472 3 12 3C18.0753 3 23 7.92472 23 14C23 20.0753 18.0753 25 12 25C5.92472 25 1 20.0753 1 14ZM12 5C7.02928 5 3 9.02928 3 14C3 18.9707 7.02928 23 12 23C16.9707 23 21 18.9707 21 14C21 9.02928 16.9707 5 12 5ZM10.99 10C10.99 9.44772 11.4377 9 11.99 9H12C12.5523 9 13 9.44772 13 10C13 10.5523 12.5523 11 12 11H11.99C11.4377 11 10.99 10.5523 10.99 10ZM12 13C12.5523 13 13 13.4477 13 14V18C13 18.5523 12.5523 19 12 19C11.4477 19 11 18.5523 11 18V14C11 13.4477 11.4477 13 12 13Z" fill="#2D87F4"/>
</svg>
