<svg width="24" height="24" viewBox="0 0 24 24" fill="none" xmlns="http://www.w3.org/2000/svg">
<path d="M23.9597 12.0262C23.9597 18.6209 18.6139 23.9665 12.0194 23.9665C5.42477 23.9665 0.0791016 18.6209 0.0791016 12.0262C0.0791016 5.43173 5.42477 0.0859375 12.0194 0.0859375C18.6139 0.0859375 23.9597 5.43173 23.9597 12.0262Z" fill="#020100"/>
<path d="M19.4982 8.91611C18.8237 8.44433 18.1024 7.94135 17.3967 7.44228C17.3811 7.43058 17.3655 7.41888 17.346 7.40719C17.268 7.3487 17.1783 7.28632 17.0691 7.25123L17.0613 7.24733C15.1742 6.79114 13.2559 6.32326 11.4 5.87097C9.71558 5.46157 8.0351 5.05218 6.35072 4.64278C6.30783 4.63108 6.26494 4.61938 6.21815 4.60769C6.06609 4.5648 5.89063 4.51801 5.70348 4.5414C5.64889 4.5492 5.60211 4.5687 5.55922 4.59599L5.51243 4.63498C5.43835 4.70516 5.39936 4.79484 5.37986 4.84553L5.36816 4.87672V5.05607L5.37596 5.08337C6.4404 8.06612 7.53212 11.0918 8.58486 14.0199C9.39586 16.2736 10.238 18.6091 11.0607 20.9017C11.1114 21.0577 11.2557 21.159 11.435 21.1746H11.474C11.6417 21.1746 11.7899 21.0928 11.8639 20.9602L14.952 16.4568C15.7045 15.3612 16.457 14.2617 17.2095 13.166C17.5175 12.7177 17.8255 12.2654 18.1336 11.817C18.6404 11.0762 19.1629 10.312 19.6815 9.56725L19.7088 9.52826V9.48147C19.7205 9.345 19.7244 9.06427 19.4982 8.91611ZM15.8799 10.5576C15.1547 10.9358 14.4139 11.3257 13.6692 11.7117C14.102 11.2477 14.5387 10.7798 14.9715 10.3159C15.5134 9.73101 16.0788 9.12666 16.6324 8.534L16.6441 8.52231C16.6909 8.45992 16.7494 8.40144 16.8118 8.33905C16.8547 8.29617 16.9015 8.25328 16.9444 8.20259C17.2329 8.40144 17.5253 8.60419 17.8061 8.80304C18.0088 8.9473 18.2155 9.09157 18.426 9.23583C17.5682 9.67252 16.7104 10.1209 15.8799 10.5576ZM14.0162 10.3704C13.4586 10.9748 12.8816 11.5947 12.3084 12.2069C11.1972 10.8578 10.0626 9.48927 8.96306 8.1675C8.46399 7.56705 7.96102 6.9627 7.46194 6.36225L7.45804 6.35835C7.34497 6.22968 7.2358 6.08932 7.12662 5.95675C7.05644 5.86707 6.98236 5.78129 6.90828 5.69162C7.36057 5.80859 7.81675 5.91776 8.26514 6.02303C8.65894 6.11661 9.06834 6.21409 9.46994 6.31546C11.7314 6.86522 13.9967 7.41498 16.2581 7.96475C15.5056 8.76795 14.7492 9.58284 14.0162 10.3704ZM12.055 17.9696C12.0979 17.5602 12.1447 17.1392 12.1837 16.7259C12.2188 16.3944 12.2538 16.0552 12.2889 15.7316C12.3435 15.213 12.402 14.675 12.4488 14.1486L12.4605 14.055C12.4995 13.7197 12.5385 13.3727 12.5619 13.0257C12.6048 13.0023 12.6515 12.9789 12.7022 12.9594C12.7607 12.9321 12.8192 12.9087 12.8777 12.8736C13.7784 12.4018 14.679 11.9301 15.5836 11.4622C16.4843 10.9943 17.4084 10.5108 18.3246 10.0312C17.4902 11.2399 16.6519 12.4603 15.8409 13.6495C15.143 14.6672 14.4256 15.716 13.7121 16.7493C13.4313 17.1625 13.1389 17.5836 12.8621 17.9891C12.5502 18.4414 12.2304 18.9054 11.9185 19.3694C11.9575 18.9015 12.0043 18.4297 12.055 17.9696ZM6.61975 6.61179C6.56906 6.47142 6.51448 6.32716 6.46769 6.19069C7.52043 7.46177 8.58096 8.74065 9.6142 9.98054C10.1484 10.6239 10.6825 11.2633 11.2167 11.9106C11.322 12.0314 11.4272 12.1601 11.5286 12.2849C11.6612 12.4447 11.7938 12.6124 11.938 12.7722C11.8912 13.1738 11.8522 13.5793 11.8094 13.9692C11.7821 14.2422 11.7548 14.5151 11.7236 14.7919V14.7958C11.7119 14.9713 11.6885 15.1468 11.669 15.3183C11.6417 15.5562 11.5793 16.0942 11.5793 16.0942L11.5754 16.1215C11.5052 16.9091 11.4195 17.7045 11.3376 18.4765C11.3025 18.7962 11.2713 19.1238 11.2362 19.4513C11.2167 19.3928 11.1933 19.3343 11.1738 19.2797C11.1153 19.1238 11.0568 18.96 11.0023 18.8001L10.5851 17.6421C9.26329 13.9653 7.94152 10.2925 6.61975 6.61179Z" fill="white"/>
</svg>
