<svg width="25" height="24" viewBox="0 0 25 24" fill="none" xmlns="http://www.w3.org/2000/svg">
<path fillRule="evenodd" clipRule="evenodd" d="M10 11C10.3797 11 10.6875 11.3078 10.6875 11.6875V19.6527L14.3264 16.0139C14.5948 15.7454 15.0302 15.7454 15.2986 16.0139C15.5671 16.2823 15.5671 16.7177 15.2986 16.9861L10.4861 21.7986C10.2177 22.0671 9.78235 22.0671 9.51386 21.7986L4.70136 16.9861C4.43288 16.7177 4.43288 16.2823 4.70136 16.0139C4.96985 15.7454 5.40515 15.7454 5.67364 16.0139L9.3125 19.6527V11.6875C9.3125 11.3078 9.6203 11 10 11Z" fill="#3375F6"/>
<path fillRule="evenodd" clipRule="evenodd" d="M14.5139 2.20136C14.7823 1.93288 15.2177 1.93288 15.4861 2.20136L20.2986 7.01386C20.5671 7.28235 20.5671 7.71765 20.2986 7.98614C20.0302 8.25462 19.5948 8.25462 19.3264 7.98614L15.6875 4.34727V12.3125C15.6875 12.6922 15.3797 13 15 13C14.6203 13 14.3125 12.6922 14.3125 12.3125V4.34727L10.6736 7.98614C10.4052 8.25462 9.96985 8.25462 9.70136 7.98614C9.43288 7.71765 9.43288 7.28235 9.70136 7.01386L14.5139 2.20136Z" fill="#3375F6"/>
</svg>
