<svg width="16" height="16" viewBox="0 0 16 16" fill="none" xmlns="http://www.w3.org/2000/svg">
<g clip-path="url(#clip0_2388_86529)">
<path d="M15.9858 7.99536C15.9858 12.3918 12.422 15.9556 8.02563 15.9556C3.62937 15.9556 0.0654297 12.3918 0.0654297 7.99536C0.0654297 3.59902 3.62937 0.0351562 8.02563 0.0351562C12.422 0.0351562 15.9858 3.59902 15.9858 7.99536Z" fill="#1BA27A"/>
<path d="M11.7616 4.05078H4.22412V5.87048H7.08303V8.54511H8.90273V5.87048H11.7616V4.05078Z" fill="white"/>
<path d="M8.0101 8.82941C5.64512 8.82941 3.72775 8.45513 3.72775 7.99335C3.72775 7.53166 5.64504 7.15729 8.0101 7.15729C10.3751 7.15729 12.2924 7.53166 12.2924 7.99335C12.2924 8.45513 10.3751 8.82941 8.0101 8.82941ZM12.8185 8.13274C12.8185 7.53731 10.6657 7.05469 8.0101 7.05469C5.35458 7.05469 3.20166 7.53731 3.20166 8.13274C3.20166 8.65708 4.87099 9.09393 7.08305 9.19073V13.0303H8.90259V9.19224C11.1317 9.09847 12.8185 8.65978 12.8185 8.13274Z" fill="white"/>
</g>
<defs>
<clipPath id="clip0_2388_86529">
<rect width="16" height="16" fill="white"/>
</clipPath>
</defs>
</svg>
