<svg width="24" height="24" viewBox="0 0 24 24" fill="none" xmlns="http://www.w3.org/2000/svg">
<path fill-rule="evenodd" clip-rule="evenodd" d="M13 18C13 18.5523 12.5545 19 12.005 19H11.995C11.4455 19 11 18.5523 11 18C11 17.4477 11.4455 17 11.995 17H12.005C12.5545 17 13 17.4477 13 18ZM11.995 15C11.4455 15 11 14.5523 11 14V10C11 9.44771 11.4455 9 11.995 9C12.5446 9 12.99 9.44771 12.99 10V14C12.99 14.5523 12.5446 15 11.995 15Z" fill="#F45725"/>
<path d="M2.82536 19.5144L11.1258 4.57348C11.5068 3.88767 12.4932 3.88767 12.8742 4.57348L21.1746 19.5144C21.5449 20.1809 21.063 21 20.3005 21H3.69951C2.93703 21 2.45506 20.1809 2.82536 19.5144Z" stroke="#F45725" stroke-width="2" stroke-linejoin="round"/>
</svg>
