<svg width="160" height="40" viewBox="0 0 160 40" fill="none" xmlns="http://www.w3.org/2000/svg">
<path d="M16.6713 20.0625C18.7181 19.0267 21.2816 19.0267 23.3284 20.0625L34.5994 25.7665C37.099 27.0315 37.0214 30.0907 34.4599 31.2656L23.0914 36.4802C21.1652 37.3637 18.8345 37.3637 16.9084 36.4802L5.53979 31.2656C2.97831 30.0907 2.90074 27.0315 5.40034 25.7665L16.6713 20.0625Z" fill="#2979FF"/>
<path d="M16.6713 12.9197C18.7181 11.8839 21.2816 11.8839 23.3284 12.9197L34.5994 18.6237C37.099 19.8887 37.0214 22.9479 34.4599 24.1228L23.0914 29.3374C21.1652 30.2208 18.8345 30.2208 16.9084 29.3374L5.53979 24.1228C2.97831 22.9479 2.90074 19.8887 5.40034 18.6237L16.6713 12.9197Z" fill="#74A8FF"/>
<path d="M16.6713 3.66515C18.7181 2.58786 21.2816 2.58785 23.3284 3.66514L34.5994 9.59728C37.099 10.9129 37.0214 14.0945 34.4599 15.3164L23.0914 20.7395C21.1652 21.6583 18.8345 21.6583 16.9084 20.7395L5.53979 15.3164C2.97831 14.0945 2.90074 10.9129 5.40034 9.59728L16.6713 3.66515Z" fill="#BDD5FF"/>
<path d="M47.1217 26.4814C46.9954 26.4814 46.888 26.4382 46.7996 26.3518C46.7112 26.2654 46.667 26.1604 46.667 26.037V13.9814C46.667 13.8456 46.7112 13.7345 46.7996 13.6481C46.888 13.5616 46.9954 13.5184 47.1217 13.5184H55.4578C55.5967 13.5184 55.7104 13.5616 55.7988 13.6481C55.8872 13.7345 55.9314 13.8456 55.9314 13.9814V15.2036C55.9314 15.3271 55.8872 15.432 55.7988 15.5184C55.7104 15.6049 55.5967 15.6481 55.4578 15.6481H49.2247V18.9258H55.041C55.1799 18.9258 55.2936 18.9691 55.382 19.0555C55.4704 19.1295 55.5146 19.2345 55.5146 19.3703V20.5184C55.5146 20.6542 55.4704 20.7654 55.382 20.8518C55.2936 20.9258 55.1799 20.9629 55.041 20.9629H49.2247V24.3518H55.6094C55.7483 24.3518 55.862 24.395 55.9504 24.4814C56.0388 24.5678 56.083 24.6789 56.083 24.8147V26.037C56.083 26.1604 56.0388 26.2654 55.9504 26.3518C55.862 26.4382 55.7483 26.4814 55.6094 26.4814H47.1217Z" fill="#101113"/>
<path d="M57.7137 26.4814C57.6 26.4814 57.5053 26.4444 57.4295 26.3703C57.3537 26.2962 57.3158 26.2036 57.3158 26.0925C57.3158 26.0555 57.3221 26.0184 57.3347 25.9814C57.3474 25.9444 57.36 25.9073 57.3726 25.8703L61.6165 19.8703L57.6379 14.1295C57.6 14.0555 57.581 13.9814 57.581 13.9073C57.581 13.7962 57.6189 13.7036 57.6947 13.6295C57.7705 13.5555 57.8589 13.5184 57.96 13.5184H59.9114C60.0629 13.5184 60.1829 13.5555 60.2713 13.6295C60.3597 13.7036 60.4355 13.7839 60.4987 13.8703L63.2837 17.8703L66.0877 13.8703C66.1382 13.7839 66.2076 13.7036 66.2961 13.6295C66.3971 13.5555 66.5234 13.5184 66.675 13.5184H68.5127C68.6264 13.5184 68.7211 13.5555 68.7969 13.6295C68.8727 13.7036 68.9106 13.7962 68.9106 13.9073C68.9106 13.9814 68.8853 14.0555 68.8348 14.1295L64.8751 19.8703L69.119 25.8703C69.1442 25.9073 69.1632 25.9444 69.1758 25.9814C69.1884 26.0184 69.1947 26.0555 69.1947 26.0925C69.1947 26.2036 69.1505 26.2962 69.0621 26.3703C68.9863 26.4444 68.8979 26.4814 68.7969 26.4814H66.7886C66.6371 26.4814 66.5171 26.4444 66.4287 26.3703C66.3403 26.2962 66.2708 26.2221 66.2203 26.1481L63.189 21.9629L60.2145 26.1481C60.164 26.2221 60.0945 26.2962 60.0061 26.3703C59.9177 26.4444 59.7914 26.4814 59.6272 26.4814H57.7137Z" fill="#101113"/>
<path d="M74.369 26.4814C74.2427 26.4814 74.1353 26.4382 74.0469 26.3518C73.9585 26.2654 73.9143 26.1604 73.9143 26.037V15.7962H70.4093C70.283 15.7962 70.1757 15.753 70.0873 15.6666C69.9989 15.5802 69.9546 15.4752 69.9546 15.3518V13.9814C69.9546 13.8456 69.9989 13.7345 70.0873 13.6481C70.1757 13.5616 70.283 13.5184 70.4093 13.5184H80.0716C80.2106 13.5184 80.3243 13.5616 80.4127 13.6481C80.5011 13.7345 80.5453 13.8456 80.5453 13.9814V15.3518C80.5453 15.4752 80.5011 15.5802 80.4127 15.6666C80.3243 15.753 80.2106 15.7962 80.0716 15.7962H76.5856V26.037C76.5856 26.1604 76.5414 26.2654 76.453 26.3518C76.3646 26.4382 76.2509 26.4814 76.112 26.4814H74.369Z" fill="#101113"/>
<path d="M82.9224 26.4814C82.7961 26.4814 82.6887 26.4382 82.6003 26.3518C82.5119 26.2654 82.4677 26.1604 82.4677 26.037V13.9814C82.4677 13.8456 82.5119 13.7345 82.6003 13.6481C82.6887 13.5616 82.7961 13.5184 82.9224 13.5184H87.8293C89.3576 13.5184 90.5638 13.8641 91.4479 14.5555C92.3321 15.2468 92.7741 16.253 92.7741 17.574C92.7741 18.4876 92.5405 19.2468 92.0731 19.8518C91.6185 20.4567 91.0059 20.895 90.2354 21.1666L93.0015 25.8888C93.0394 25.9629 93.0583 26.0308 93.0583 26.0925C93.0583 26.2036 93.0141 26.2962 92.9257 26.3703C92.8499 26.4444 92.7615 26.4814 92.6605 26.4814H90.9364C90.7217 26.4814 90.5575 26.4258 90.4438 26.3147C90.3301 26.2036 90.2417 26.0925 90.1786 25.9814L87.7346 21.5925H85.1011V26.037C85.1011 26.1604 85.0569 26.2654 84.9685 26.3518C84.8927 26.4382 84.7854 26.4814 84.6464 26.4814H82.9224ZM85.1011 19.4999H87.7725C88.5429 19.4999 89.1176 19.3333 89.4965 18.9999C89.8754 18.6542 90.0649 18.1728 90.0649 17.5555C90.0649 16.9382 89.8754 16.4567 89.4965 16.111C89.1302 15.753 88.5556 15.574 87.7725 15.574H85.1011V19.4999Z" fill="#101113"/>
<path d="M100.501 26.6666C99.4023 26.6666 98.4487 26.4876 97.6404 26.1295C96.832 25.7592 96.2068 25.1974 95.7647 24.4444C95.3227 23.6789 95.1016 22.7036 95.1016 21.5184V13.9814C95.1016 13.8456 95.1459 13.7345 95.2343 13.6481C95.3227 13.5616 95.43 13.5184 95.5563 13.5184H97.2804C97.4193 13.5184 97.5267 13.5616 97.6025 13.6481C97.6909 13.7345 97.7351 13.8456 97.7351 13.9814V21.5184C97.7351 22.5308 97.9814 23.2839 98.474 23.7777C98.9666 24.2592 99.6423 24.4999 100.501 24.4999C101.36 24.4999 102.029 24.2592 102.509 23.7777C103.002 23.2839 103.248 22.5308 103.248 21.5184V13.9814C103.248 13.8456 103.292 13.7345 103.381 13.6481C103.469 13.5616 103.583 13.5184 103.722 13.5184H105.427C105.566 13.5184 105.673 13.5616 105.749 13.6481C105.838 13.7345 105.882 13.8456 105.882 13.9814V21.5184C105.882 22.7036 105.661 23.6789 105.219 24.4444C104.789 25.1974 104.17 25.7592 103.362 26.1295C102.566 26.4876 101.613 26.6666 100.501 26.6666Z" fill="#101113"/>
<path d="M113.837 26.6666C112.662 26.6666 111.664 26.4691 110.843 26.074C110.035 25.6666 109.416 25.0925 108.987 24.3518C108.557 23.5987 108.317 22.6974 108.267 21.6481C108.254 21.1419 108.248 20.5987 108.248 20.0184C108.248 19.4382 108.254 18.8826 108.267 18.3518C108.317 17.3147 108.557 16.4197 108.987 15.6666C109.429 14.9135 110.054 14.3394 110.862 13.9444C111.683 13.537 112.675 13.3333 113.837 13.3333C114.696 13.3333 115.466 13.4444 116.148 13.6666C116.83 13.8888 117.411 14.1974 117.891 14.5925C118.371 14.9752 118.744 15.4258 119.009 15.9444C119.274 16.4629 119.413 17.0246 119.426 17.6295C119.438 17.7407 119.401 17.8333 119.312 17.9073C119.236 17.9814 119.142 18.0184 119.028 18.0184H117.228C117.089 18.0184 116.976 17.9876 116.887 17.9258C116.799 17.8518 116.736 17.7345 116.698 17.574C116.496 16.7592 116.148 16.2036 115.656 15.9073C115.163 15.611 114.55 15.4629 113.818 15.4629C112.972 15.4629 112.296 15.6974 111.791 16.1666C111.285 16.6234 111.014 17.3826 110.976 18.4444C110.938 19.4567 110.938 20.4937 110.976 21.5555C111.014 22.6172 111.285 23.3826 111.791 23.8518C112.296 24.3086 112.972 24.537 113.818 24.537C114.55 24.537 115.163 24.3888 115.656 24.0925C116.148 23.7839 116.496 23.2283 116.698 22.4258C116.736 22.253 116.799 22.1357 116.887 22.074C116.976 22.0123 117.089 21.9814 117.228 21.9814H119.028C119.142 21.9814 119.236 22.0184 119.312 22.0925C119.401 22.1666 119.438 22.2592 119.426 22.3703C119.413 22.9752 119.274 23.537 119.009 24.0555C118.744 24.574 118.371 25.0308 117.891 25.4258C117.411 25.8086 116.83 26.111 116.148 26.3333C115.466 26.5555 114.696 26.6666 113.837 26.6666Z" fill="#101113"/>
<path d="M125.045 26.4814C124.919 26.4814 124.811 26.4382 124.723 26.3518C124.635 26.2654 124.59 26.1604 124.59 26.037V15.7962H121.085C120.959 15.7962 120.852 15.753 120.763 15.6666C120.675 15.5802 120.631 15.4752 120.631 15.3518V13.9814C120.631 13.8456 120.675 13.7345 120.763 13.6481C120.852 13.5616 120.959 13.5184 121.085 13.5184H130.748C130.887 13.5184 131 13.5616 131.089 13.6481C131.177 13.7345 131.221 13.8456 131.221 13.9814V15.3518C131.221 15.4752 131.177 15.5802 131.089 15.6666C131 15.753 130.887 15.7962 130.748 15.7962H127.262V26.037C127.262 26.1604 127.217 26.2654 127.129 26.3518C127.041 26.4382 126.927 26.4814 126.788 26.4814H125.045Z" fill="#101113"/>
<path d="M138 26.6666C136.875 26.6666 135.909 26.4876 135.101 26.1295C134.293 25.7592 133.661 25.1974 133.206 24.4444C132.752 23.6789 132.505 22.7283 132.467 21.5925C132.455 21.0616 132.448 20.537 132.448 20.0184C132.448 19.4999 132.455 18.9691 132.467 18.4258C132.505 17.3024 132.758 16.3641 133.225 15.611C133.693 14.8579 134.33 14.29 135.139 13.9073C135.96 13.5246 136.913 13.3333 138 13.3333C139.086 13.3333 140.039 13.5246 140.86 13.9073C141.681 14.29 142.326 14.8579 142.793 15.611C143.26 16.3641 143.513 17.3024 143.551 18.4258C143.576 18.9691 143.589 19.4999 143.589 20.0184C143.589 20.537 143.576 21.0616 143.551 21.5925C143.513 22.7283 143.266 23.6789 142.812 24.4444C142.357 25.1974 141.719 25.7592 140.898 26.1295C140.09 26.4876 139.124 26.6666 138 26.6666ZM138 24.537C138.821 24.537 139.49 24.3024 140.008 23.8333C140.526 23.3518 140.804 22.574 140.841 21.4999C140.867 20.9567 140.879 20.4567 140.879 19.9999C140.879 19.5308 140.867 19.0308 140.841 18.4999C140.816 17.7839 140.677 17.2036 140.425 16.7592C140.185 16.3024 139.856 15.9752 139.439 15.7777C139.023 15.5678 138.543 15.4629 138 15.4629C137.469 15.4629 136.995 15.5678 136.579 15.7777C136.162 15.9752 135.827 16.3024 135.575 16.7592C135.335 17.2036 135.202 17.7839 135.177 18.4999C135.164 19.0308 135.158 19.5308 135.158 19.9999C135.158 20.4567 135.164 20.9567 135.177 21.4999C135.215 22.574 135.492 23.3518 136.01 23.8333C136.528 24.3024 137.191 24.537 138 24.537Z" fill="#101113"/>
<path d="M146.531 26.4814C146.405 26.4814 146.297 26.4382 146.209 26.3518C146.121 26.2654 146.076 26.1604 146.076 26.037V13.9814C146.076 13.8456 146.121 13.7345 146.209 13.6481C146.297 13.5616 146.405 13.5184 146.531 13.5184H151.438C152.966 13.5184 154.172 13.8641 155.057 14.5555C155.941 15.2468 156.383 16.253 156.383 17.574C156.383 18.4876 156.149 19.2468 155.682 19.8518C155.227 20.4567 154.615 20.895 153.844 21.1666L156.61 25.8888C156.648 25.9629 156.667 26.0308 156.667 26.0925C156.667 26.2036 156.623 26.2962 156.534 26.3703C156.459 26.4444 156.37 26.4814 156.269 26.4814H154.545C154.33 26.4814 154.166 26.4258 154.052 26.3147C153.939 26.2036 153.85 26.0925 153.787 25.9814L151.343 21.5925H148.71V26.037C148.71 26.1604 148.666 26.2654 148.577 26.3518C148.501 26.4382 148.394 26.4814 148.255 26.4814H146.531ZM148.71 19.4999H151.381C152.152 19.4999 152.726 19.3333 153.105 18.9999C153.484 18.6542 153.674 18.1728 153.674 17.5555C153.674 16.9382 153.484 16.4567 153.105 16.111C152.739 15.753 152.164 15.574 151.381 15.574H148.71V19.4999Z" fill="#101113"/>
</svg>
